# xmcd
#
# Track frame offsets: 
#        150
#        20775
#        43229
#        66146
#        89461
#        111968
#        128570
#        164832
#        189122
#        209126
#        228792
#
# Disc length: 3396 seconds
#
# Revision: 0
# Processed by: cddbd v1.5.2PL0 Copyright (c) Steve Scherf et al.
# Submitted via: ExactAudioCopy v0.99pb5
#
DISCID=9d0d420b
DTITLE=Cam Ly - Quoc Dai - Que Huong
DYEAR=2008
DGENRE=Vietnamese
TTITLE0=Que Huong
TTITLE1=Giua Mac Tu Khoa Nghe Cau Ho Vi Dam
TTITLE2=Tho Tinh Cuoi Mua Thu
TTITLE3=Nhung Co Gai Dong Bang Song Cuu Long
TTITLE4=Dat Mui Ca Mau
TTITLE5=Soi Nho Soi Thuong
TTITLE6=Que Huong
TTITLE7=Dang Dung Ben Tre
TTITLE8=Tinh Ca Mua Xuan
TTITLE9=Rung Chieu
TTITLE10=Hue Tinh Yeu Cua Toi
EXTD=
EXTT0=
EXTT1=
EXTT2=
EXTT3=
EXTT4=
EXTT5=
EXTT6=
EXTT7=
EXTT8=
EXTT9=
EXTT10=
PLAYORDER=
